<?xml version="1.0" encoding="UTF-8"?>
<!-- Generated by Pixelmator Pro 3.7 -->
<svg width="349" height="349" viewBox="0 0 349 349" xmlns="http://www.w3.org/2000/svg">
    <g id="Group">
        <path id="Path" fill="#000000" stroke="none" d="M 173.182587 1.825775 C 148.417206 6.250763 129.491516 12.712097 106.24427 24.376343 C 77.534622 38.702972 48.310055 61.918091 32.293518 82.984863 C 23.141094 95.168152 14.365134 113.06601 11.688893 125.254364 C 5.82708 151.408478 16.093725 175.670486 36.024921 182.416306 C 44.022816 185.089249 58.245018 185.100433 66.882126 182.313568 C 77.932526 178.766693 89.751305 166.966461 89.757294 159.347427 C 89.760384 155.410934 87.98291 155.02858 81.632019 157.182312 C 69.438164 161.490189 58.901188 158.053345 52.941025 147.762955 C 41.147278 127.690216 53.74712 91.509674 82.595123 62.70694 C 122.753586 22.611542 195.022217 3.874695 237.420105 22.70163 C 247.321365 27.153839 258.106232 38.336914 261.780975 48.244568 C 268.370361 65.773529 266.195587 86.216248 255.63945 107.160324 C 239.105698 140.036209 206.96109 162.487122 171.911133 165.507217 L 162.894562 166.389008 L 166.457413 157.121979 C 168.36615 152.044113 172.565399 140.872818 175.873856 132.11351 C 195.088654 80.954041 205.391907 58.612946 217.086502 43.25705 C 221.154282 37.799957 224.459747 32.850189 224.460144 32.342224 C 224.461639 30.437469 218.239838 29.924652 211.762558 31.316376 C 191.949554 35.74527 172.509247 50.714081 158.524048 72.290405 C 147.971619 88.536072 136.395325 114.939651 110.946953 180.570404 C 81.299736 256.864532 73.922791 271.969818 57.655773 288.591949 C 47.10783 299.123352 39.358013 303.942657 29.451967 305.585663 C 22.720921 306.723236 21.448986 309.388885 25.000347 314.725006 L 27.156382 318.155273 L 56.744343 317.289642 C 72.998688 316.794464 88.491531 315.790771 91.412758 315.031158 C 99.160378 313.005493 107.167549 303.868927 115.052925 288.12912 C 118.741348 280.639954 129.429047 253.854721 138.845718 228.592285 L 156.151657 182.637665 L 160.850464 182.133423 C 163.517212 182.008545 165.675751 182.264206 165.675247 182.899124 C 165.67186 187.216583 175.40712 241.319427 178.192291 252.11525 C 190.471527 300.759796 208.60788 329.218445 235.13765 341.81073 C 246.562119 347.026031 256.211212 349.192352 268.909698 349.075348 C 289.10025 348.964233 309.042725 341.36084 323.656128 328.292969 C 331.788818 321.061279 338.907684 311.162109 338.910889 307.098633 C 338.914185 302.908142 331.421234 304.045105 325.06781 309.373474 C 321.891235 311.910645 315.79303 315.715393 311.473969 317.743713 C 304.614349 320.912933 301.947266 321.418793 291.534576 321.410583 C 280.740936 321.40213 278.582611 320.892487 270.458649 317.076599 C 248.371719 306.519562 231.756775 281.10968 216.174866 233.85939 C 209.333984 213.155609 199.962814 180.513351 200.598129 180.00592 C 200.852203 179.879135 206.313904 178.105652 212.791672 176.078995 C 236.543381 168.859558 256.869781 157.446976 272.119354 142.855789 C 312.911804 103.903732 319.171051 56.797577 287.83075 25.280914 C 278.187531 15.622559 263.209717 7.610779 246.451324 3.153198 C 231.216446 -0.922302 192.232956 -1.714813 173.182587 1.825775 Z"/>
    </g>
</svg>
