<?xml version="1.0" standalone="no"?>
<!DOCTYPE svg PUBLIC "-//W3C//DTD SVG 20010904//EN"
 "http://www.w3.org/TR/2001/REC-SVG-20010904/DTD/svg10.dtd">
<svg version="1.0" xmlns="http://www.w3.org/2000/svg"
 width="2248.719141pt" height="922.519259pt" viewBox="0 0 2248.719141 922.519259"
 preserveAspectRatio="xMidYMid meet">
<metadata>
Created by Potrace Professional 1.1m
</metadata>
<g transform="translate(-98.103613,3392.540901) rotate(-360.00) scale(0.095238,-0.095238)"
fill="#000000" stroke="none">
<path d="M8228 35611 c-135 -35 -302 -159 -338 -252 -22 -58 -17 -220 9 -280
25 -60 96 -129 184 -182 45 -26 93 -63 107 -81 l26 -34 -1 -237 c-1 -133 -14
-402 -29 -614 -50 -696 -66 -1030 -79 -1644 -10 -442 -4 -597 26 -702 65 -223
205 -310 577 -358 251 -32 621 -161 889 -311 298 -166 538 -401 607 -593 21
-58 25 -93 29 -251 5 -215 -3 -262 -75 -434 -71 -170 -144 -273 -315 -443
-283 -283 -423 -361 -1035 -583 -459 -165 -537 -200 -614 -273 -80 -75 -113
-132 -174 -293 -182 -483 -194 -837 -32 -1012 90 -98 233 -136 510 -137 214 0
298 16 466 86 212 89 578 325 710 459 288 292 635 863 765 1260 163 498 213
1223 133 1926 -55 478 -129 724 -326 1087 -150 274 -276 441 -428 563 -122 98
-445 309 -564 367 -58 28 -155 68 -215 89 -224 78 -278 121 -295 236 -5 36 -7
70 -5 77 8 23 27 475 48 1146 11 370 26 769 32 888 14 259 14 297 -6 334 -20
39 -99 111 -150 137 -116 59 -325 87 -437 59z"/>
<path d="M11701 33297 c-168 -105 -394 -741 -492 -1382 -24 -156 -47 -371 -47
-432 0 -79 27 -112 146 -177 112 -61 133 -83 147 -159 39 -211 40 -799 1
-1390 -12 -176 -28 -613 -37 -972 -16 -672 -40 -1262 -58 -1427 -6 -52 -20
-182 -32 -289 -11 -107 -30 -260 -42 -341 -31 -211 -39 -494 -16 -596 30 -134
93 -197 197 -197 124 1 210 99 292 331 43 122 68 231 105 452 34 209 50 253
90 263 46 11 287 -3 661 -39 300 -30 387 -34 651 -34 560 0 852 63 1083 236
256 192 464 421 589 649 175 319 315 947 375 1675 9 110 23 259 31 331 10 86
11 151 6 187 -16 96 -91 200 -135 186 -28 -9 -76 -109 -106 -221 -35 -128
-156 -491 -202 -609 -23 -57 -75 -170 -115 -251 -224 -448 -383 -566 -855
-635 -578 -85 -1463 -28 -1741 111 -251 126 -294 271 -250 833 12 153 27 408
33 567 18 466 50 879 80 1038 14 77 33 112 93 172 53 52 102 55 536 30 475
-28 940 -31 1160 -7 197 21 376 54 466 85 71 24 221 108 309 172 56 41 129
139 176 236 78 165 183 518 240 810 47 237 103 648 93 671 -7 15 -21 22 -51
23 -22 1 -55 5 -72 9 -46 10 -85 -20 -215 -168 -98 -110 -122 -131 -190 -165
-230 -116 -690 -157 -1769 -158 -697 -1 -753 2 -804 51 -36 34 -60 120 -74
260 -13 133 -46 234 -85 263 -41 30 -130 34 -172 8z"/>
<path d="M1422 33189 c-48 -43 -142 -235 -207 -424 -166 -482 -222 -986 -130
-1168 49 -95 164 -191 440 -366 22 -14 40 -32 40 -41 0 -43 -41 -99 -145 -202
-112 -110 -116 -115 -160 -223 -257 -628 -293 -1163 -136 -2078 55 -320 117
-533 205 -705 61 -117 258 -381 371 -494 101 -102 184 -159 353 -243 230 -114
471 -197 677 -233 247 -42 729 -45 966 -5 306 52 665 217 924 427 115 93 280
268 349 372 267 399 434 1091 472 1956 11 251 10 309 -6 499 -30 348 -78 765
-107 921 -103 564 -301 1013 -560 1272 -88 88 -224 184 -322 228 -176 78 -499
98 -1270 78 -571 -15 -998 -9 -1137 15 -200 35 -276 91 -359 262 -56 116 -92
159 -148 175 -55 16 -69 13 -110 -23z m2537 -1941 c185 -22 272 -48 449 -137
194 -97 303 -179 399 -300 149 -188 275 -531 275 -748 0 -232 -72 -566 -160
-742 -42 -84 -133 -203 -200 -260 -228 -195 -571 -335 -952 -390 -544 -79
-1232 -5 -1515 163 -185 110 -408 374 -517 613 -95 207 -131 376 -139 646 -5
186 -3 215 18 315 58 269 150 405 384 562 200 134 454 219 834 278 119 19 174
20 578 16 245 -2 491 -9 546 -16z"/>
<path d="M18737 32993 c-82 -51 -185 -230 -262 -452 -84 -246 -153 -588 -152
-764 0 -174 44 -279 167 -404 135 -136 291 -208 541 -251 147 -25 252 -26 504
-6 104 9 312 21 462 27 150 7 447 23 659 37 381 24 387 24 499 4 146 -25 249
-48 302 -69 64 -24 164 -100 223 -168 59 -69 190 -265 231 -345 64 -125 102
-287 139 -585 52 -420 8 -627 -237 -1121 -53 -107 -122 -232 -152 -278 -97
-148 -268 -301 -732 -655 -185 -140 -266 -221 -316 -315 -48 -91 -79 -212 -80
-316 0 -81 3 -97 36 -163 50 -103 157 -209 266 -263 78 -38 89 -41 201 -45
176 -7 262 23 426 146 256 193 407 402 673 934 145 290 189 390 252 580 80
239 133 473 174 769 22 156 32 968 15 1176 -29 343 -73 577 -154 822 -235 707
-514 1127 -866 1304 -110 56 -167 70 -388 100 -283 39 -479 47 -1176 47 -860
0 -877 3 -997 180 -40 60 -88 86 -162 91 -50 2 -71 -1 -96 -17z"/>
<path d="M6402 32903 c-78 -28 -200 -152 -268 -270 -41 -73 -100 -225 -130
-336 -20 -75 -24 -115 -24 -261 0 -192 8 -234 74 -352 56 -102 98 -133 435
-320 260 -145 326 -190 354 -239 29 -52 48 -159 39 -221 -12 -81 -62 -215
-121 -325 -128 -239 -157 -324 -156 -469 0 -127 27 -164 136 -185 201 -38 367
152 549 630 72 188 129 372 150 480 37 194 39 587 4 808 -27 170 -123 379
-239 522 -83 103 -351 376 -427 437 -84 66 -136 91 -217 104 -85 14 -110 14
-159 -3z"/>
<path d="M23582 32903 c-52 -18 -89 -46 -153 -114 -78 -82 -131 -170 -180
-295 -74 -189 -87 -247 -93 -422 -6 -179 6 -257 59 -362 60 -119 106 -154 442
-341 323 -181 358 -208 385 -299 37 -130 4 -291 -99 -483 -132 -246 -163 -336
-163 -474 1 -124 30 -165 133 -188 70 -16 151 2 208 46 62 47 177 203 229 309
59 122 158 376 205 525 71 227 79 283 85 585 6 296 -7 448 -50 591 -34 108
-127 281 -204 377 -92 115 -327 358 -419 433 -94 76 -144 102 -228 115 -85 14
-110 14 -157 -3z"/>
<path d="M16557 32880 c-138 -43 -353 -234 -421 -375 -97 -199 -123 -321 -131
-602 -7 -251 0 -309 55 -473 76 -230 113 -275 446 -553 252 -211 426 -376 479
-456 68 -102 73 -134 119 -674 23 -275 49 -580 58 -678 54 -636 61 -1354 16
-1711 -29 -233 -21 -299 44 -383 30 -38 60 -52 114 -53 61 0 146 41 183 89 36
48 106 178 126 237 32 89 61 462 79 1023 26 796 1 3005 -37 3248 -34 221 -89
381 -176 513 -70 107 -240 322 -417 529 -180 209 -228 259 -273 283 -81 42
-195 57 -264 36z"/>
</g>
</svg>
