<?xml version="1.0" standalone="no"?>
<!DOCTYPE svg PUBLIC "-//W3C//DTD SVG 20010904//EN"
 "http://www.w3.org/TR/2001/REC-SVG-20010904/DTD/svg10.dtd">
<svg version="1.0" xmlns="http://www.w3.org/2000/svg"
 width="794.739779pt" height="262.081658pt" viewBox="0 0 794.739779 262.081658"
 preserveAspectRatio="xMidYMid meet">
<metadata>
Created by Potrace Professional 1.1m
</metadata>
<g transform="translate(-111.238387,671.796374) rotate(-360.00) scale(0.095238,-0.095238)"
fill="#000000" stroke="none">
<path d="M2452 7036 c-195 -35 -344 -86 -527 -178 -226 -113 -456 -296 -582
-462 -72 -96 -141 -237 -162 -333 -46 -206 35 -397 192 -450 63 -21 175 -21
243 1 87 28 180 121 180 181 0 31 -14 34 -64 17 -96 -34 -179 -7 -226 74 -93
158 6 443 233 670 316 316 885 464 1219 316 78 -35 163 -123 192 -201 52 -138
35 -299 -48 -464 -130 -259 -383 -436 -659 -460 l-71 -7 28 73 c15 40 48 128
74 197 151 403 232 579 324 700 32 43 58 82 58 86 0 15 -49 19 -100 8 -156
-35 -309 -153 -419 -323 -83 -128 -174 -336 -374 -853 -233 -601 -291 -720
-419 -851 -83 -83 -144 -121 -222 -134 -53 -9 -63 -30 -35 -72 l17 -27 233 7
c128 4 250 12 273 18 61 16 124 88 186 212 29 59 113 270 187 469 l136 362 37
4 c21 1 38 -1 38 -6 0 -34 77 -460 99 -545 97 -383 240 -607 449 -706 90 -41
166 -58 266 -57 159 1 316 61 431 164 64 57 120 135 120 167 0 33 -59 24 -109
-18 -25 -20 -73 -50 -107 -66 -54 -25 -75 -29 -157 -29 -85 0 -102 4 -166 34
-174 83 -305 283 -428 655 -54 163 -128 420 -123 424 2 1 45 15 96 31 187 57
347 147 467 262 321 307 370 678 123 926 -76 76 -194 139 -326 174 -120 32
-427 38 -577 10z"/>
<path d="M8773 6577 c-79 -42 -115 -100 -107 -171 4 -39 13 -55 48 -87 23 -22
57 -43 74 -47 18 -3 32 -10 32 -14 0 -4 -12 -34 -26 -66 -14 -32 -22 -61 -19
-64 17 -17 76 -4 115 23 109 80 158 190 130 294 -13 50 -62 111 -107 134 -38
20 -100 19 -140 -2z"/>
<path d="M3711 6349 c-163 -63 -210 -283 -74 -347 91 -43 193 0 255 107 84
142 -32 297 -181 240z"/>
<path d="M9123 6194 c-73 -17 -156 -61 -209 -111 -74 -69 -94 -112 -94 -201 0
-106 30 -158 159 -278 114 -105 156 -164 156 -216 0 -127 -174 -204 -273 -121
-25 21 -31 35 -31 68 0 45 24 114 54 159 46 66 -4 96 -99 61 -76 -29 -121 -66
-146 -121 -34 -76 -19 -152 45 -221 53 -58 125 -88 227 -96 160 -12 315 36
404 125 66 66 87 114 87 202 -1 103 -33 157 -191 322 -142 149 -161 183 -136
244 30 71 132 108 203 73 55 -27 68 -57 60 -136 -4 -43 -2 -67 6 -72 50 -31
167 99 168 187 0 45 -65 106 -136 127 -61 18 -190 21 -254 5z"/>
<path d="M8497 6125 c-49 -24 -172 -175 -195 -239 -4 -11 -10 -17 -13 -14 -2
2 5 42 16 87 27 102 27 117 1 131 -49 26 -211 1 -243 -38 -11 -13 -11 -21 -1
-36 20 -32 15 -90 -18 -187 -44 -132 -87 -215 -163 -318 -76 -103 -173 -189
-258 -229 -46 -21 -74 -27 -139 -27 -74 0 -84 3 -109 28 -18 19 -29 43 -33 75
l-5 47 77 23 c208 63 380 197 462 359 60 119 48 212 -34 272 -95 68 -217 64
-373 -12 -216 -106 -388 -342 -424 -584 -13 -81 -17 -91 -63 -143 -52 -57
-123 -98 -151 -87 -37 14 -24 65 115 442 69 188 60 302 -26 361 -31 20 -47 24
-96 20 -96 -6 -167 -49 -293 -176 l-111 -111 10 59 c13 80 -7 142 -56 176 -73
49 -188 14 -321 -99 -38 -32 -89 -83 -112 -113 l-43 -54 9 37 c5 20 10 67 10
104 0 61 -3 69 -30 89 -54 41 -183 16 -277 -53 -39 -29 -44 -50 -13 -66 32
-18 26 -53 -41 -249 -78 -227 -114 -295 -206 -388 -103 -105 -184 -126 -184
-47 0 27 37 142 136 423 62 179 59 265 -15 334 -25 23 -37 26 -109 26 -89 0
-121 -11 -206 -76 -48 -37 -138 -135 -174 -190 -14 -23 -15 -19 -16 58 -1 99
-19 140 -74 166 -48 23 -101 17 -177 -20 -69 -34 -184 -139 -247 -225 -25 -35
-47 -63 -48 -62 -1 2 10 52 24 111 l27 109 -23 23 c-19 18 -35 22 -94 22 -59
0 -82 -5 -132 -31 -76 -39 -91 -59 -65 -88 17 -18 17 -25 3 -82 -24 -97 -127
-383 -160 -445 -43 -80 -157 -194 -209 -208 -93 -26 -90 20 25 363 45 137 89
284 96 326 13 74 13 78 -10 100 -19 20 -34 23 -104 23 -71 0 -90 -4 -152 -35
-72 -35 -87 -58 -56 -85 28 -23 -11 -179 -111 -444 -52 -139 -65 -186 -68
-249 -4 -68 -1 -86 19 -126 34 -66 78 -87 168 -81 103 6 187 49 280 143 42 41
75 73 75 71 0 -2 -11 -38 -25 -80 l-26 -75 23 -9 c21 -8 227 3 256 14 6 2 20
30 30 60 31 95 180 486 199 524 64 126 171 231 236 231 49 0 50 -33 6 -159
-152 -427 -206 -591 -203 -611 3 -22 7 -23 108 -21 185 4 155 -28 273 289 56
152 117 304 135 339 40 75 149 190 190 200 33 8 62 -5 67 -29 1 -8 -38 -128
-88 -266 -77 -212 -91 -263 -92 -320 -2 -77 18 -123 70 -162 24 -18 44 -22
110 -21 109 0 160 27 282 144 l97 94 -20 -72 c-37 -127 -33 -132 103 -123 154
9 144 3 176 101 58 177 196 511 234 571 44 67 128 148 165 157 75 19 83 -25
30 -170 -118 -323 -204 -586 -198 -604 3 -11 14 -20 24 -20 60 0 250 25 261
34 8 6 20 32 28 59 21 71 151 413 185 488 61 137 183 263 247 257 55 -6 48
-50 -41 -288 -42 -115 -85 -234 -95 -266 -33 -112 -14 -192 57 -240 32 -22 46
-24 108 -20 101 7 206 60 304 155 41 40 76 71 77 70 1 -1 10 -20 20 -41 70
-151 273 -187 485 -86 89 42 230 169 305 274 26 36 48 66 50 66 2 0 -21 -73
-50 -163 -47 -139 -52 -165 -39 -173 19 -12 242 -1 259 13 7 5 23 43 35 85 51
166 162 457 200 523 56 96 145 189 174 181 17 -4 20 -12 17 -36 -3 -17 1 -38
8 -47 18 -21 82 -20 126 4 40 21 84 93 84 138 -1 45 -39 114 -76 136 -42 26
-115 28 -163 4z m-796 -135 c37 -38 33 -131 -10 -218 -56 -111 -145 -188 -272
-234 l-71 -26 8 34 c4 19 21 70 38 112 97 246 239 400 307 332z"/>
</g>
</svg>
